PathFileType	4	(X/Y/Z)	C:/Users/opensim2020/Desktop/walking_exp_matlab/subject01_walking05_straight_04.trc	
DataRate	CameraRate	NumFrames	NumMarkers	Units	OrigDataRate	OrigDataStartFrame	OrigNumFrames	
100.00	100.00	8	43	mm	100.00	2987	283	
Frame#	Time	LFHD			RFHD			LBHD			RBHD			C7			T10			CLAV			STRN			RBAK			LSHO			LUPA			LELB			LFRM			LWRA			LWRB			LFIN			RSHO			RUPA			RELB			RFRM			RWRA			RWRB			RFIN			LASI			RASI			LPSI			RPSI			LTHI			LKNE			LTIB			LANK			LHEE			LTOE			RTHI			RKNE			RTIB			RANK			RHEE			RTOE			*39			*40			*41			*42			
		X1	Y1	Z1	X2	Y2	Z2	X3	Y3	Z3	X4	Y4	Z4	X5	Y5	Z5	X6	Y6	Z6	X7	Y7	Z7	X8	Y8	Z8	X9	Y9	Z9	X10	Y10	Z10	X11	Y11	Z11	X12	Y12	Z12	X13	Y13	Z13	X14	Y14	Z14	X15	Y15	Z15	X16	Y16	Z16	X17	Y17	Z17	X18	Y18	Z18	X19	Y19	Z19	X20	Y20	Z20	X21	Y21	Z21	X22	Y22	Z22	X23	Y23	Z23	X24	Y24	Z24	X25	Y25	Z25	X26	Y26	Z26	X27	Y27	Z27	X28	Y28	Z28	X29	Y29	Z29	X30	Y30	Z30	X31	Y31	Z31	X32	Y32	Z32	X33	Y33	Z33	X34	Y34	Z34	X35	Y35	Z35	X36	Y36	Z36	X37	Y37	Z37	X38	Y38	Z38	X39	Y39	Z39	X40	Y40	Z40	X41	Y41	Z41	X42	Y42	Z42	X43	Y43	Z43	

213	2.120	1549.85168	-556.36713	1670.88525	1436.76135	-574.21960	1679.11340	1536.72400	-440.52905	1624.83667	1416.31641	-456.07751	1632.71228	1488.55750	-409.76526	1426.62793	1471.58362	-386.21445	1134.49426	1488.44482	-557.64880	1366.50220	1488.40210	-609.26294	1214.17590	1401.30371	-366.39511	1233.08655	1649.04175	-489.73288	1388.84143	1730.23547	-464.52921	1202.90686	1731.01233	-458.43033	1052.78979	1756.69080	-500.16345	947.61115	1739.03955	-582.83081	833.80103	1763.42896	-527.03870	828.17603	1765.28809	-573.41608	754.46533	1337.02319	-494.68042	1396.06702	1226.36816	-444.01163	1201.10242	1218.86353	-443.58984	1075.87488	1186.44128	-476.13962	959.57538	1206.98889	-559.43732	844.26593	1164.20789	-519.86426	846.06195	1169.73022	-556.16119	767.45343	1571.90918	-569.42633	933.42047	1354.90051	-554.90619	931.48370	1529.72449	-379.73407	941.92273	1385.45361	-373.14832	939.03107	1622.95007	-562.41638	602.40967	1601.49292	-563.64282	468.09705	1609.74072	-515.01599	283.09753	1552.64844	-487.61304	67.88940	1501.51624	-440.62537	39.74046	1551.52454	-636.21185	30.20443	1291.77380	-548.81494	596.09930	1306.36182	-570.73260	441.40378	1315.19226	-421.67059	350.46268	1371.31665	-268.77148	217.77711	1433.75635	-220.88484	224.36757	1352.57776	-309.89679	80.74426	1460.08386	-559.99976	1711.73511	-3101.90967	1973.20496	1023.21204	-3140.65869	2012.51184	1021.95813			 
214	2.130	1549.63928	-566.17865	1671.41858	1436.50574	-583.72192	1679.51355	1536.92920	-450.21652	1625.53418	1416.45862	-465.39816	1633.26001	1489.10535	-419.07285	1427.11597	1472.54492	-395.17917	1135.12781	1488.53137	-566.77673	1367.11926	1488.66370	-618.16638	1214.68604	1402.47632	-375.18604	1233.62646	1649.38013	-499.64941	1389.81628	1731.27429	-476.39273	1204.14941	1733.28088	-472.37366	1053.87024	1759.14307	-516.70361	949.71375	1741.75452	-602.07855	838.02429	1766.06445	-546.45337	831.00201	1768.87842	-594.97821	758.97839	1337.27893	-503.17755	1396.53577	1227.69727	-451.08636	1201.32568	1220.51978	-449.93570	1076.36267	1188.03320	-480.78635	959.75964	1208.40662	-561.76312	842.57159	1165.36487	-522.53033	845.38074	1171.58716	-556.30811	765.32788	1573.11133	-578.01898	933.88312	1356.19092	-564.06934	932.59998	1529.83203	-388.53629	942.52814	1385.30164	-382.61572	940.15186	1623.27747	-567.44141	602.15723	1601.98560	-566.57599	467.70938	1610.01453	-516.54382	283.23987	1552.62097	-487.80148	68.03431	1501.31152	-440.88367	40.01357	1551.54163	-636.26593	29.99953	1292.57800	-564.19592	598.25995	1307.55322	-588.59314	443.91290	1316.71936	-440.77808	350.51672	1372.50562	-291.22610	214.18481	1434.51758	-242.00786	218.48862	1353.13171	-339.11066	79.99268	1459.80261	-569.65594	1712.13623	-3101.91870	1973.12854	1023.23322	-3140.52295	2012.60046	1022.17194			 
215	2.140	1549.28027	-575.90338	1671.91626	1436.04285	-593.16071	1679.77930	1537.01123	-459.89218	1626.22791	1416.39551	-474.81830	1633.67834	1489.71680	-428.18060	1427.70813	1473.41956	-404.15826	1135.68054	1488.62122	-575.80463	1367.75842	1488.95825	-627.24091	1215.30664	1403.53430	-384.01212	1234.07532	1649.67102	-509.49164	1390.81067	1732.32739	-488.18704	1205.35303	1735.40320	-486.19675	1054.89282	1761.43860	-533.17712	951.83734	1744.31482	-621.30872	842.44659	1768.68579	-565.93219	834.05847	1772.25696	-616.54645	763.67322	1337.58118	-511.56488	1396.95862	1228.94092	-458.08582	1201.48230	1222.29968	-456.39954	1076.71350	1189.65723	-485.58853	959.78442	1209.77747	-563.89886	840.87964	1166.71545	-524.93402	844.71539	1173.28015	-556.45502	763.54718	1574.23242	-586.40875	934.27692	1357.39453	-573.49365	933.73920	1529.82227	-397.19690	943.14331	1385.10522	-391.97211	941.15857	1623.61877	-572.37531	601.90814	1602.45361	-569.54865	467.42615	1610.45801	-517.87115	283.38977	1552.73499	-487.91931	68.19503	1501.35193	-440.92581	40.40727	1551.58972	-636.37823	29.93749	1293.37903	-579.00574	600.29547	1308.73840	-605.67438	446.49170	1318.09241	-459.93747	350.23877	1373.68237	-314.21942	209.52280	1435.11536	-263.90167	211.24420	1354.11316	-368.98203	78.50104	1459.32556	-579.24371	1712.45618	-3101.99707	1973.12097	1023.25580	-3140.61719	2012.62134	1022.14435			 
216	2.150	1548.83044	-585.68451	1672.46423	1435.48950	-602.58698	1680.04700	1536.99243	-469.55725	1626.91943	1416.32349	-484.10095	1634.05457	1490.29114	-437.13675	1428.26038	1474.25464	-413.08652	1136.21423	1488.59985	-584.72986	1368.22705	1489.19885	-636.16943	1215.77576	1404.52014	-392.84018	1234.45715	1649.86755	-519.19897	1391.71863	1733.33313	-499.88412	1206.58459	1737.32654	-499.87906	1055.96582	1763.58508	-549.54218	954.06287	1746.92493	-640.57880	847.21515	1771.07581	-585.39825	837.20654	1775.47864	-638.09363	768.71265	1337.89697	-519.96771	1397.44800	1230.16992	-464.93747	1201.56519	1224.05249	-462.76068	1077.02039	1191.23499	-490.07428	959.79425	1210.95776	-566.29443	839.39087	1168.02905	-527.31207	844.09161	1174.76978	-556.88800	761.95465	1574.98340	-594.06940	934.19604	1358.55591	-582.60370	934.79999	1529.74121	-405.85980	943.75146	1384.83459	-401.37454	942.01428	1623.66077	-577.45166	601.95410	1602.94336	-572.52869	467.14514	1610.76245	-519.18793	283.64896	1552.65759	-488.08365	68.44994	1501.26965	-441.04550	40.78806	1551.61951	-636.49200	29.85713	1294.10864	-593.66937	602.60699	1310.03564	-622.64960	449.14148	1319.50354	-479.06149	349.08923	1374.73389	-337.97040	203.90401	1435.67419	-286.54807	203.12187	1355.22937	-399.50790	76.35606	1458.80969	-588.59210	1712.68982	-3101.90430	1973.21948	1023.23425	-3140.50317	2012.63257	1022.13165			 
217	2.160	1548.26001	-595.36230	1672.93469	1434.82202	-611.90137	1680.22009	1536.86328	-479.16223	1627.50989	1416.19910	-493.32324	1634.40076	1490.67651	-446.23715	1428.70166	1475.12854	-421.98392	1136.65063	1488.68176	-593.84546	1368.83374	1489.39380	-645.17511	1216.35144	1405.44763	-401.63589	1234.81372	1650.02551	-528.81677	1392.55627	1734.39453	-511.44409	1207.79944	1739.02686	-513.29645	1056.92273	1765.57190	-565.76349	956.33179	1749.35693	-659.71246	852.12042	1773.33875	-604.72827	840.54962	1778.54773	-659.53125	773.92047	1337.98645	-528.58191	1397.58875	1231.36072	-471.74796	1201.61462	1225.96851	-468.99448	1077.18225	1192.68127	-494.05737	959.86731	1212.07446	-568.78949	838.07947	1169.23242	-529.67938	843.52502	1176.09253	-557.40430	760.62781	1576.14343	-603.25708	934.93390	1359.67834	-591.73102	935.76184	1529.66199	-414.45020	944.34338	1384.54333	-410.60190	942.83051	1624.14624	-581.92963	601.60785	1603.42542	-575.49304	466.91620	1610.97583	-520.48602	283.84482	1552.63208	-488.35480	68.76614	1501.17261	-441.26382	41.36032	1551.64673	-636.57642	29.73434	1294.69592	-607.88660	604.75531	1311.43396	-638.85095	452.15222	1320.81714	-498.54608	347.35959	1375.80664	-362.23364	197.31223	1436.33899	-310.05273	193.91611	1356.43652	-430.76895	73.59293	1458.07727	-598.20276	1713.03076	-3101.86597	1973.09717	1023.44647	-3140.67114	2012.48096	1022.00507			 
218	2.170	1547.63135	-604.98846	1673.34924	1434.11316	-621.24506	1680.32507	1536.65552	-488.78354	1628.03845	1415.95239	-502.54758	1634.61243	1491.07312	-455.30893	1429.09033	1475.88965	-430.95499	1137.04773	1488.64075	-602.83179	1369.18213	1489.55664	-654.09155	1216.67908	1406.30664	-410.50613	1235.10535	1650.13086	-538.40167	1393.37866	1735.39197	-522.93420	1208.92639	1740.51440	-526.63354	1057.80383	1767.38855	-581.73151	958.60522	1751.72009	-678.67932	857.18170	1775.35645	-624.01770	844.04266	1781.47034	-680.73962	779.32703	1338.11902	-537.06378	1397.72278	1232.49316	-478.59222	1201.63184	1227.31592	-475.28082	1077.43774	1194.17139	-498.36557	959.77960	1212.98853	-571.47961	836.84955	1171.29028	-530.70966	842.91187	1177.30603	-558.20953	759.43268	1577.11743	-611.73822	935.13434	1360.70996	-600.84406	936.64294	1529.45679	-422.97797	944.73096	1384.27148	-419.77249	943.46948	1624.42920	-586.74402	601.39551	1603.85352	-578.52002	466.60672	1611.09216	-521.90265	284.09766	1552.57690	-488.56451	69.00477	1501.24426	-441.22198	42.26196	1551.68652	-636.65424	29.63081	1295.16589	-621.91272	607.00537	1312.93628	-654.97192	454.47632	1321.57019	-518.48682	344.65628	1376.91577	-387.14542	189.90106	1436.94458	-334.54169	183.85080	1357.66931	-462.24826	70.76337	1457.29529	-607.65753	1713.19580	-3101.81128	1973.13916	1023.42944	-3140.65210	2012.64063	1022.14777			 
219	2.180	1546.89783	-614.57642	1673.64294	1433.34229	-630.58600	1680.36084	1536.39771	-498.27081	1628.41272	1415.61145	-511.71576	1634.64490	1491.37549	-464.49957	1429.39075	1476.60083	-439.88257	1137.35486	1488.52991	-611.86859	1369.49988	1489.71130	-663.16400	1217.09473	1407.14868	-419.35901	1235.29871	1650.16772	-547.98114	1394.08813	1736.30005	-534.25574	1210.00720	1741.80212	-539.75525	1058.66992	1769.00806	-597.48462	960.85797	1753.89600	-697.39484	862.36670	1777.21313	-643.07819	847.68372	1784.22974	-701.73602	785.01459	1338.16309	-545.74188	1397.80420	1233.53943	-485.42694	1201.56042	1228.97021	-481.56757	1077.49561	1195.57422	-502.67252	959.57727	1213.89600	-574.07269	835.66669	1172.64978	-533.29523	842.07111	1178.31970	-559.19458	758.41797	1577.85815	-619.89264	934.98608	1361.66418	-609.95172	937.36908	1529.25500	-431.41409	944.99396	1383.83032	-428.86203	943.93390	1624.60657	-591.55707	601.09424	1604.17480	-581.57794	466.28113	1610.95813	-523.46820	284.36087	1552.57800	-488.83475	69.41207	1501.04285	-441.60196	42.78888	1551.71887	-636.76904	29.56800	1295.54797	-635.58099	608.96729	1314.40051	-670.69348	456.63910	1322.53772	-538.60095	341.22232	1378.15051	-412.57309	181.86061	1437.81311	-359.92667	172.95676	1358.64880	-494.25592	67.25633	1456.44666	-617.01776	1713.31677	-3101.85400	1973.10938	1023.48212	-3140.77026	2012.61243	1022.12445			 
220	2.190	1546.11829	-624.07367	1673.90601	1432.42151	-639.78290	1680.31421	1536.05542	-507.73511	1628.67859	1415.20728	-520.93134	1634.61841	1491.58826	-473.59000	1429.61047	1477.35510	-448.71365	1137.57544	1488.29346	-620.89087	1369.65625	1489.80200	-672.05853	1217.24841	1408.02026	-428.18790	1235.40857	1650.10657	-557.56927	1394.69678	1737.16785	-545.44171	1211.04675	1742.98071	-552.68921	1059.48047	1770.53650	-613.09290	963.17291	1756.00610	-716.01788	867.91083	1778.85071	-662.00861	851.44592	1786.72876	-722.52429	790.84326	1338.10596	-554.31464	1397.72302	1234.47681	-492.46362	1201.46045	1230.12744	-487.84506	1077.58911	1196.98975	-506.89520	959.49982	1214.76685	-576.63629	834.44226	1174.10034	-535.09393	841.61700	1179.27344	-560.50922	757.56415	1578.50232	-628.04816	934.77820	1362.58301	-618.97351	937.92542	1529.00012	-439.84061	945.09503	1383.51282	-437.78018	944.18494	1624.74805	-596.49274	600.74548	1604.42639	-584.75385	465.92001	1610.78760	-525.33942	284.61920	1552.33582	-488.81076	69.91123	1500.91309	-441.77087	43.64517	1551.77478	-636.80328	29.52499	1295.94617	-648.87036	610.98291	1315.91528	-686.04755	458.59546	1323.32214	-558.76666	337.02005	1379.30615	-438.75143	173.11951	1439.32666	-385.87009	161.70457	1359.49146	-526.63220	63.95145	1455.53125	-626.24438	1713.31335	-3101.84180	1973.10754	1023.49896	-3140.53564	2012.58911	1022.08911			 
